<svg width="34" height="34" viewBox="0 0 34 34" fill="none" xmlns="http://www.w3.org/2000/svg">
<path d="M30 19C31.1046 19 32 18.1046 32 17C32 15.8954 31.1046 15 30 15V19ZM3.58579 15.5858C2.80474 16.3668 2.80474 17.6332 3.58579 18.4142L16.3137 31.1421C17.0948 31.9232 18.3611 31.9232 19.1421 31.1421C19.9232 30.3611 19.9232 29.0948 19.1421 28.3137L7.82843 17L19.1421 5.68629C19.9232 4.90524 19.9232 3.63891 19.1421 2.85786C18.3611 2.07682 17.0948 2.07682 16.3137 2.85786L3.58579 15.5858ZM30 15L5 15V19L30 19V15Z" fill="#F1FFE6"/>
</svg>
