<svg width="34" height="34" viewBox="0 0 34 34" fill="none" xmlns="http://www.w3.org/2000/svg">
<path fill-rule="evenodd" clip-rule="evenodd" d="M25.5 2C30.1944 2 34 6.47715 34 12V24C34 29.5228 30.1944 34 25.5 34H8.5C3.80558 34 0 29.5228 0 24V12C0 6.47715 3.80558 2 8.5 2C8.5 0.895431 9.26112 0 10.2 0C11.1389 0 11.9 0.895431 11.9 2H22.1C22.1 0.895431 22.8611 0 23.8 0C24.7389 0 25.5 0.895431 25.5 2ZM10.2 8C9.26112 8 8.5 7.10457 8.5 6C5.68335 6 3.4 8.68629 3.4 12H30.6C30.6 8.68629 28.3167 6 25.5 6C25.5 7.10457 24.7389 8 23.8 8C22.8611 8 22.1 7.10457 22.1 6H11.9C11.9 7.10457 11.1389 8 10.2 8ZM3.4 16H30.6V24C30.6 27.3137 28.3167 30 25.5 30H8.5C5.68335 30 3.4 27.3137 3.4 24V16Z" fill="#F1FFE6"/>
</svg>
