<svg width="34" height="34" viewBox="0 0 34 34" fill="none" xmlns="http://www.w3.org/2000/svg">
<path fill-rule="evenodd" clip-rule="evenodd" d="M10.9678 27.9286C10.9678 31.2817 8.51259 34 5.48391 34C2.45523 34 0 31.2817 0 27.9286V6.07143C0 2.71827 2.45523 0 5.48391 0C8.51259 0 10.9678 2.71827 10.9678 6.07143L10.9678 13.4849C11.4595 12.4928 12.1754 11.6056 13.1156 10.9188L23.795 3.11724C28.1703 -0.0789382 34 3.39504 34 9.19845L34 24.8016C34 30.605 28.1703 34.0789 23.795 30.8828L13.1156 23.0812C12.1754 22.3944 11.4595 21.5072 10.9678 20.5151L10.9678 27.9286ZM4.38713 27.9286L4.38713 6.07143C4.38713 5.4008 4.87818 4.85714 5.48391 4.85714C6.08965 4.85714 6.5807 5.4008 6.5807 6.07143L6.58069 27.9286C6.58069 28.5992 6.08965 29.1429 5.48391 29.1429C4.87818 29.1429 4.38713 28.5992 4.38713 27.9286ZM15.5318 19.0271C14.2178 18.0672 14.2178 15.9328 15.5318 14.9729L26.2112 7.17138C27.6696 6.10598 29.6129 7.26398 29.6129 9.19845L29.6129 24.8016C29.6129 26.736 27.6696 27.894 26.2112 26.8286L15.5318 19.0271Z" fill="#F1FFE6"/>
</svg>
