<svg width="34" height="34" viewBox="0 0 34 34" fill="none" xmlns="http://www.w3.org/2000/svg">
<path d="M33.9275 30.0553L26.4251 9.95447C26.3214 9.67729 26.1648 9.42355 25.9643 9.20773C25.7638 8.99192 25.5234 8.81827 25.2567 8.6967C24.99 8.57512 24.7023 8.508 24.4101 8.49918C24.1178 8.49035 23.8267 8.54 23.5533 8.64526L20.0359 9.98833V6.68146C20.0359 6.10674 19.8107 5.55557 19.4099 5.14919C19.0091 4.7428 18.4656 4.5145 17.8987 4.5145H12.2442V2.16696C12.2442 1.59225 12.019 1.04107 11.6182 0.634688C11.2174 0.228304 10.6738 0 10.107 0H2.22621C1.63578 0 1.06954 0.237817 0.652042 0.661133C0.234547 1.08445 0 1.65859 0 2.25725V32.7301C0 33.0294 0.117273 33.3165 0.326021 33.5282C0.534769 33.7398 0.817892 33.8587 1.11311 33.8587H18.9228C19.218 33.8587 19.5011 33.7398 19.7099 33.5282C19.9186 33.3165 20.0359 33.0294 20.0359 32.7301V18.3627L25.6014 33.2719C25.6533 33.4104 25.7316 33.5373 25.8318 33.6452C25.9321 33.7531 26.0523 33.84 26.1857 33.9007C26.319 33.9615 26.4628 33.9951 26.609 33.9995C26.7551 34.0039 26.9007 33.9791 27.0373 33.9265L33.2819 31.5112C33.4186 31.4586 33.5437 31.3792 33.6501 31.2776C33.7565 31.1759 33.8422 31.054 33.9021 30.9188C33.9621 30.7836 33.9952 30.6378 33.9995 30.4896C34.0039 30.3414 33.9794 30.1939 33.9275 30.0553ZM10.018 6.57988V31.6015H2.22621V2.25725H10.018V6.57988ZM17.8097 31.6015H12.2442V6.77175H17.8097V31.6015ZM27.2822 31.3193L20.1806 12.3246L24.3436 10.7219L31.4564 29.7167L27.2822 31.3193Z" fill="#F1FFE6"/>
</svg>
