<svg width="34" height="34" viewBox="0 0 34 34" fill="none" xmlns="http://www.w3.org/2000/svg">
<path d="M14.6914 8.6482V10.1856C14.6914 11.1265 13.9392 11.8892 13.0114 11.8892C12.0835 11.8892 11.3314 11.1265 11.3314 10.1856V8.22062C11.3314 4.78507 14.0779 2 17.4659 2H24.6077C28.1381 2 31 4.90209 31 8.482V25.518C31 29.0979 28.1381 32 24.6077 32H17.5175C14.101 32 11.3314 29.1915 11.3314 25.7271V23.7313C11.3314 22.7904 12.0835 22.0277 13.0114 22.0277C13.9392 22.0277 14.6914 22.7904 14.6914 23.7313V25.1856C14.6914 26.9297 16.0857 28.3435 17.8056 28.3435H24.4438C26.1637 28.3435 27.558 26.9297 27.558 25.1856V8.5651C27.558 6.82104 26.1637 5.4072 24.4438 5.4072H17.8876C16.1224 5.4072 14.6914 6.85825 14.6914 8.6482Z" fill="#F1FFE6"/>
<path d="M4.51612 15.4626L20.2225 15.4626L16.4527 11.6399C15.819 10.9973 15.819 9.95557 16.4527 9.31302C17.0864 8.67048 18.1137 8.67048 18.7474 9.31302L25.2849 15.9423C25.861 16.5264 25.861 17.4736 25.2849 18.0577L18.7474 24.687C18.1137 25.3295 17.0863 25.3295 16.4527 24.687C15.819 24.0444 15.819 23.0027 16.4527 22.3601L20.2225 18.5374L4.51612 18.5374C3.67879 18.5374 3 17.8491 3 17C3 16.1509 3.67879 15.4626 4.51612 15.4626Z" fill="#F1FFE6"/>
</svg>
