<svg width="34" height="34" viewBox="0 0 34 34" fill="none" xmlns="http://www.w3.org/2000/svg">
<path d="M17.4349 24.795V23.3601C17.4349 22.482 18.1468 21.7701 19.0249 21.7701C19.9031 21.7701 20.615 22.482 20.615 23.3601V25.1941C20.615 28.4006 18.0156 31 14.809 31H8.04986C4.70862 31 2 28.2914 2 24.9501V9.04986C2 5.70862 4.70862 3 8.04986 3H14.7603C17.9937 3 20.615 5.62124 20.615 8.8547V10.7175C20.615 11.5956 19.9031 12.3075 19.0249 12.3075C18.1468 12.3075 17.4349 11.5956 17.4349 10.7175V9.36011C17.4349 7.73232 16.1153 6.41274 14.4875 6.41274H8.20499C6.5772 6.41274 5.25762 7.73232 5.25762 9.36011V24.8726C5.25762 26.5004 6.5772 27.8199 8.20499 27.8199H14.41C16.0806 27.8199 17.4349 26.4656 17.4349 24.795Z" fill="#F1FFE6"/>
<path d="M9.48477 15.5651H27.4404L23.8726 11.9972C23.2729 11.3975 23.2729 10.4252 23.8726 9.82548C24.4723 9.22577 25.4446 9.22577 26.0443 9.82548L32.2316 16.0128C32.7769 16.558 32.7769 17.442 32.2316 17.9872L26.0443 24.1745C25.4446 24.7742 24.4723 24.7742 23.8726 24.1745C23.2729 23.5748 23.2729 22.6025 23.8726 22.0028L27.4404 18.4349H9.48477C8.69229 18.4349 8.04986 17.7925 8.04986 17C8.04986 16.2075 8.69229 15.5651 9.48477 15.5651Z" fill="#F1FFE6"/>
</svg>
