<svg width="34" height="34" viewBox="0 0 34 34" fill="none" xmlns="http://www.w3.org/2000/svg">
<path fill-rule="evenodd" clip-rule="evenodd" d="M17 0C7.61116 0 0 7.61116 0 17C0 26.3888 7.61116 34 17 34C26.3888 34 34 26.3888 34 17C34 7.61116 26.3888 0 17 0ZM13.7452 6.8717C12.7907 9.01928 12.1165 11.9569 11.9436 15.3H22.0564C21.8835 11.9569 21.2093 9.01928 20.2548 6.8717C19.6973 5.61717 19.0774 4.70717 18.4749 4.13382C17.8812 3.56881 17.3857 3.4 17 3.4C16.6143 3.4 16.1188 3.56881 15.5251 4.13382C14.9226 4.70717 14.3027 5.61717 13.7452 6.8717ZM10.9575 4.81269C10.8471 5.03408 10.7406 5.26033 10.6382 5.49083C9.46556 8.12925 8.71494 11.5532 8.53957 15.3H3.50522C4.07998 10.6908 6.96124 6.79787 10.9575 4.81269ZM23.0425 4.81269C23.1529 5.03408 23.2594 5.26033 23.3618 5.49083C24.5344 8.12925 25.2851 11.5532 25.4604 15.3H30.4948C29.92 10.6908 27.0388 6.79787 23.0425 4.81269ZM30.4948 18.7H25.4604C25.2851 22.4469 24.5344 25.8708 23.3618 28.5092C23.2594 28.7397 23.1529 28.9659 23.0425 29.1873C27.0388 27.2021 29.92 23.3092 30.4948 18.7ZM17 30.6C17.3857 30.6 17.8812 30.4312 18.4749 29.8662C19.0774 29.2928 19.6973 28.3828 20.2548 27.1283C21.2093 24.9807 21.8835 22.0431 22.0564 18.7H11.9436C12.1165 22.0431 12.7907 24.9807 13.7452 27.1283C14.3027 28.3828 14.9226 29.2928 15.5251 29.8662C16.1188 30.4312 16.6143 30.6 17 30.6ZM10.9575 29.1873C10.8471 28.9659 10.7406 28.7397 10.6382 28.5092C9.46556 25.8708 8.71494 22.4469 8.53957 18.7H3.50522C4.07998 23.3092 6.96124 27.2021 10.9575 29.1873Z" fill="#F1FFE6"/>
</svg>
