<svg width="34" height="34" viewBox="0 0 34 34" fill="none" xmlns="http://www.w3.org/2000/svg">
<path d="M5 15C3.89543 15 3 15.8954 3 17C3 18.1046 3.89543 19 5 19L5 15ZM31.4142 18.4142C32.1953 17.6332 32.1953 16.3668 31.4142 15.5858L18.6863 2.85787C17.9052 2.07682 16.6389 2.07682 15.8579 2.85787C15.0768 3.63891 15.0768 4.90524 15.8579 5.68629L27.1716 17L15.8579 28.3137C15.0768 29.0948 15.0768 30.3611 15.8579 31.1421C16.6389 31.9232 17.9052 31.9232 18.6863 31.1421L31.4142 18.4142ZM5 19L30 19L30 15L5 15L5 19Z" fill="#F1FFE6"/>
</svg>
