<svg width="34" height="34" viewBox="0 0 34 34" fill="none" xmlns="http://www.w3.org/2000/svg">
<path fill-rule="evenodd" clip-rule="evenodd" d="M17.0004 11.7466C14.099 11.7466 11.7469 14.0986 11.7469 17C11.7469 19.9014 14.099 22.2535 17.0004 22.2535C19.9019 22.2535 22.2539 19.9014 22.2539 17C22.2539 14.0986 19.9019 11.7466 17.0004 11.7466ZM15.2492 17C15.2492 16.0329 16.0333 15.2489 17.0004 15.2489C17.9676 15.2489 18.7516 16.0329 18.7516 17C18.7516 17.9672 17.9676 18.7512 17.0004 18.7512C16.0333 18.7512 15.2492 17.9672 15.2492 17Z" fill="#F1FFE6"/>
<path fill-rule="evenodd" clip-rule="evenodd" d="M21.6866 0.123033C19.7894 -0.402762 18.0484 0.825605 17.5708 2.49722L17.4298 2.99073L16.5693 2.99073L16.4283 2.49746C15.9507 0.825777 14.2096 -0.402607 12.3123 0.123337C10.9246 0.508038 9.6064 1.05908 8.38074 1.7533C6.66833 2.72321 6.3049 4.82242 7.14957 6.34281L7.39801 6.79L6.78953 7.39848L6.34246 7.15011C4.82203 6.30543 2.72273 6.6689 1.75284 8.38138C1.0587 9.60699 0.507725 10.9251 0.123074 12.3128C-0.402818 14.21 0.825574 15.951 2.49725 16.4286L2.99099 16.5697L2.99099 17.4302L2.49724 17.5713C0.825571 18.0489 -0.40282 19.7899 0.12307 21.6872C0.50772 23.0748 1.05869 24.393 1.75284 25.6186C2.72272 27.331 4.82202 27.6945 6.34246 26.8498L6.78953 26.6015L7.39801 27.2099L7.14956 27.6571C6.3049 29.1775 6.66832 31.2767 8.38073 32.2467C9.60635 32.9408 10.9245 33.4919 12.3122 33.8766C14.2094 34.4025 15.9506 33.1741 16.4282 31.5025L16.5691 31.0092L17.4296 31.0092L17.5707 31.5028C18.0483 33.1744 19.7892 34.4027 21.6864 33.877C23.0743 33.4923 24.3927 32.9413 25.6185 32.2471C27.331 31.2772 27.6945 29.1779 26.8498 27.6575L26.6015 27.2105L27.21 26.6021L27.6572 26.8505C29.1776 27.6951 31.2768 27.3317 32.2467 25.6194C32.9411 24.3935 33.4922 23.0752 33.8769 21.6872C34.4028 19.79 33.1744 18.0489 31.5028 17.5713L31.0089 17.4302V16.5697L31.5028 16.4286C33.1744 15.951 34.4028 14.21 33.8769 12.3127C33.4922 10.925 32.9412 9.60679 32.247 8.38112C31.2771 6.66868 29.1778 6.30523 27.6574 7.1499L27.21 7.39847L26.6015 6.79L26.8501 6.3426C27.6948 4.82219 27.3313 2.72293 25.6188 1.75304C24.393 1.05876 23.0746 0.507702 21.6866 0.123033ZM20.7974 3.95289L20.9141 3.54435C21.9077 3.83282 22.8561 4.22856 23.7458 4.71846L23.5399 5.08912C22.7805 6.45605 23.0193 8.16079 24.125 9.26651L24.7335 9.87498C25.8392 10.9807 27.5439 11.2194 28.9109 10.46L29.2816 10.2541C29.7714 11.1437 30.1671 12.0919 30.4556 13.0853L30.0467 13.2022C28.5432 13.6317 27.5066 15.006 27.5066 16.5697V17.4302C27.5066 18.9939 28.5432 20.3682 30.0467 20.7978L30.4556 20.9146C30.1671 21.9082 29.7713 22.8565 29.2814 23.7463L28.9109 23.5405C27.5439 22.7811 25.8392 23.0198 24.7335 24.1256L24.125 24.734C23.0193 25.8397 22.7805 27.5445 23.5399 28.9114L23.7456 29.2816C22.8558 29.7715 21.9075 30.1672 20.914 30.4556L20.7972 30.0471C20.3676 28.5435 18.9934 27.5069 17.4296 27.5069H16.5691C15.0054 27.5069 13.6311 28.5435 13.2015 30.0471L13.0849 30.4553C12.0915 30.1668 11.1434 29.7711 10.2538 29.2813L10.4596 28.9108C11.219 27.5439 10.9803 25.8391 9.87455 24.7334L9.26607 24.125C8.16034 23.0192 6.45559 22.7805 5.08864 23.5399L4.71829 23.7456C4.22851 22.8561 3.83284 21.9079 3.5444 20.9146L3.95315 20.7978C5.45672 20.3682 6.49333 18.9939 6.49333 17.4302V16.5697C6.49333 15.006 5.45672 13.6317 3.95316 13.2022L3.5444 13.0854C3.83285 12.092 4.22852 11.1439 4.7183 10.2543L5.08864 10.4601C6.45559 11.2195 8.16034 10.9807 9.26607 9.87499L9.87455 9.26651C10.9803 8.1608 11.219 6.45606 10.4596 5.08913L10.2538 4.71866C11.1434 4.22881 12.0916 3.8331 13.085 3.54461L13.2017 3.95289C13.6313 5.45644 15.0055 6.49304 16.5693 6.49304H17.4298C18.9935 6.49304 20.3678 5.45644 20.7974 3.95289ZM10.2538 4.71866C10.2046 4.74572 10.1557 4.77308 10.1069 4.80072C10.13 4.78758 10.1558 4.76575 10.1765 4.73768C10.196 4.71119 10.205 4.68752 10.2087 4.67204C10.2127 4.65557 10.2117 4.64596 10.2109 4.6421L10.2538 4.71866ZM4.7183 10.2543L4.64157 10.2117C4.64543 10.2125 4.6552 10.2133 4.67168 10.2092C4.68715 10.2055 4.71083 10.1965 4.73732 10.177C4.76539 10.1563 4.78723 10.1306 4.80036 10.1074C4.77272 10.1562 4.74537 10.2051 4.7183 10.2543ZM3.5444 13.0854C3.52867 13.1396 3.51325 13.1939 3.49816 13.2483C3.50533 13.2224 3.50811 13.1886 3.50286 13.1539C3.49789 13.1212 3.48744 13.098 3.47912 13.0843C3.47024 13.0696 3.46265 13.0636 3.45932 13.0614L3.5444 13.0854ZM3.5444 20.9146L3.45941 20.9389L3.45751 20.9395L3.45941 20.9389C3.46274 20.9367 3.47024 20.9303 3.47911 20.9157C3.48744 20.902 3.49789 20.8788 3.50285 20.846C3.50811 20.8114 3.50533 20.7775 3.49816 20.7516C3.51325 20.8061 3.52866 20.8604 3.5444 20.9146ZM4.71829 23.7456C4.74536 23.7948 4.77272 23.8438 4.80036 23.8926C4.78722 23.8694 4.76538 23.8437 4.73732 23.823C4.71082 23.8035 4.68715 23.7945 4.67168 23.7907C4.6552 23.7867 4.64559 23.7877 4.64173 23.7886L4.71829 23.7456ZM10.2538 29.2813L10.2112 29.358C10.2098 29.3604 10.2106 29.3607 10.2112 29.358C10.212 29.3542 10.2127 29.3444 10.2087 29.3279C10.2049 29.3124 10.196 29.2888 10.1764 29.2623C10.1558 29.2342 10.13 29.2124 10.1068 29.1992C10.1556 29.2269 10.2046 29.2542 10.2538 29.2813ZM13.0849 30.4553C13.1391 30.471 13.1934 30.4865 13.2478 30.5016C13.2219 30.4944 13.1881 30.4916 13.1534 30.4969C13.1207 30.5018 13.0975 30.5123 13.0838 30.5206C13.0691 30.5295 13.0631 30.5371 13.0609 30.5404C13.0595 30.5427 13.0602 30.543 13.0609 30.5404L13.0849 30.4553ZM20.914 30.4556L20.9382 30.5406C20.939 30.5433 20.9397 30.5429 20.9382 30.5406C20.9361 30.5373 20.9297 30.5298 20.9151 30.5209C20.9014 30.5126 20.8781 30.5021 20.8454 30.4972C20.8108 30.4919 20.7769 30.4947 20.751 30.5019C20.8055 30.4868 20.8598 30.4714 20.914 30.4556ZM23.7456 29.2816C23.7948 29.2546 23.8438 29.2272 23.8926 29.1996C23.8694 29.2127 23.8436 29.2346 23.823 29.2626C23.8034 29.2891 23.7945 29.3128 23.7907 29.3283C23.7867 29.3447 23.7877 29.3543 23.7885 29.3582C23.7891 29.3608 23.7899 29.3606 23.7885 29.3582L23.7456 29.2816ZM29.2814 23.7463L29.3581 23.7889C29.3605 23.7903 29.3607 23.7895 29.3581 23.7889C29.3542 23.7881 29.3444 23.7873 29.328 23.7914C29.3125 23.7951 29.2888 23.8041 29.2623 23.8236C29.2343 23.8443 29.2124 23.87 29.1993 23.8932C29.2269 23.8444 29.2543 23.7955 29.2814 23.7463ZM30.4556 20.9146C30.4713 20.8604 30.4868 20.8061 30.5018 20.7517C30.4947 20.7775 30.4919 20.8114 30.4971 20.8461C30.5021 20.8788 30.5126 20.902 30.5209 20.9157C30.5298 20.9303 30.5373 20.9364 30.5407 20.9386C30.543 20.94 30.5433 20.9393 30.5407 20.9386L30.4556 20.9146ZM30.4556 13.0853L30.5406 13.0611C30.5373 13.0632 30.5298 13.0696 30.5209 13.0842C30.5126 13.0979 30.5021 13.1212 30.4971 13.1539C30.4919 13.1886 30.4947 13.2224 30.5018 13.2483C30.4867 13.1938 30.4713 13.1395 30.4556 13.0853ZM29.3583 10.2115L29.2816 10.2541C29.2545 10.2049 29.2272 10.156 29.1995 10.1072C29.2127 10.1303 29.2345 10.1561 29.2626 10.1768C29.2891 10.1963 29.3127 10.2053 29.3282 10.209C29.3447 10.2131 29.3545 10.2123 29.3583 10.2115ZM23.7458 4.71846L23.7885 4.64173C23.7876 4.64559 23.7869 4.65536 23.7909 4.67184C23.7947 4.68731 23.8037 4.71098 23.8232 4.73748C23.8439 4.76554 23.8696 4.78738 23.8928 4.80052C23.844 4.77288 23.795 4.74552 23.7458 4.71846Z" fill="#F1FFE6"/>
</svg>
