<svg width="34" height="34" viewBox="0 0 34 34" fill="none" xmlns="http://www.w3.org/2000/svg">
<path fill-rule="evenodd" clip-rule="evenodd" d="M17.0004 12.3646C14.4403 12.3646 12.3649 14.44 12.3649 17C12.3649 19.5601 14.4403 21.6354 17.0004 21.6354C19.5605 21.6354 21.6358 19.5601 21.6358 17C21.6358 14.44 19.5605 12.3646 17.0004 12.3646ZM15.4552 17C15.4552 16.1467 16.147 15.4549 17.0004 15.4549C17.8537 15.4549 18.5455 16.1467 18.5455 17C18.5455 17.8534 17.8537 18.5452 17.0004 18.5452C16.147 18.5452 15.4552 17.8534 15.4552 17Z" fill="#F1FFE6"/>
<path fill-rule="evenodd" clip-rule="evenodd" d="M21.1352 2.10856C19.4612 1.64462 17.9251 2.72847 17.5036 4.20343L17.3792 4.63888L16.6199 4.63888L16.4956 4.20364C16.0741 2.72863 14.5379 1.64476 12.8638 2.10883C11.6393 2.44827 10.4762 2.93448 9.39477 3.54703C7.88382 4.40284 7.56315 6.25508 8.30844 7.5966L8.52766 7.99118L7.99076 8.52807L7.59629 8.30892C6.25473 7.56362 4.40241 7.88432 3.54663 9.39533C2.93415 10.4768 2.44799 11.6398 2.1086 12.8642C1.64457 14.5382 2.72845 16.0744 4.20345 16.4959L4.63911 16.6203L4.6391 17.3796L4.20345 17.5041C2.72845 17.9255 1.64457 19.4617 2.10859 21.1357C2.44799 22.3601 2.93414 23.5232 3.54662 24.6046C4.4024 26.1156 6.25472 26.4363 7.59629 25.691L7.99076 25.4719L8.52766 26.0088L8.30844 26.4034C7.56315 27.7449 7.88381 29.5971 9.39477 30.4529C10.4762 31.0655 11.6392 31.5517 12.8637 31.8911C14.5377 32.3552 16.074 31.2713 16.4955 29.7963L16.6198 29.3611L17.3791 29.3611L17.5035 29.7966C17.9249 31.2715 19.4611 32.3554 21.1351 31.8914C22.3597 31.5521 23.523 31.0659 24.6046 30.4533C26.1156 29.5975 26.4363 27.7452 25.691 26.4037L25.4719 26.0093L26.0088 25.4724L26.4034 25.6916C27.7449 26.4369 29.5972 26.1162 30.453 24.6053C31.0656 23.5237 31.5519 22.3604 31.8914 21.1358C32.3554 19.4617 31.2716 17.9255 29.7965 17.5041L29.3608 17.3796V16.6203L29.7965 16.4958C31.2716 16.0744 32.3554 14.5382 31.8914 12.8642C31.552 11.6397 31.0658 10.4766 30.4533 9.39511C29.5975 7.88413 27.7452 7.56344 26.4036 8.30874L26.0088 8.52806L25.4719 7.99117L25.6912 7.59642C26.4366 6.25487 26.1158 4.40259 24.6048 3.5468C23.5232 2.9342 22.3599 2.44797 21.1352 2.10856ZM20.3506 5.48784L20.4536 5.12737C21.3303 5.3819 22.1671 5.73108 22.9522 6.16334L22.7705 6.4904C22.1004 7.69652 22.3111 9.2007 23.2868 10.1763L23.8236 10.7132C24.7993 11.6888 26.3035 11.8995 27.5096 11.2294L27.8367 11.0477C28.2689 11.8327 28.6181 12.6693 28.8726 13.5459L28.5118 13.649C27.1852 14.028 26.2705 15.2406 26.2705 16.6203V17.3796C26.2705 18.7594 27.1852 19.9719 28.5118 20.351L28.8726 20.4541C28.618 21.3308 28.2688 22.1675 27.8365 22.9526L27.5096 22.771C26.3035 22.101 24.7993 22.3116 23.8236 23.2873L23.2868 23.8241C22.3111 24.7998 22.1004 26.304 22.7705 27.5101L22.952 27.8367C22.1669 28.269 21.3302 28.6181 20.4535 28.8726L20.3505 28.5121C19.9714 27.1855 18.7588 26.2708 17.3791 26.2708H16.6198C15.24 26.2708 14.0274 27.1855 13.6484 28.5121L13.5455 28.8723C12.669 28.6178 11.8324 28.2686 11.0475 27.8364L11.2291 27.5095C11.8991 26.3034 11.6885 24.7992 10.7128 23.8236L10.1759 23.2867C9.2003 22.3111 7.69611 22.1004 6.48998 22.7705L6.1632 22.952C5.73104 22.1671 5.38192 21.3305 5.12741 20.454L5.48808 20.351C6.81475 19.9719 7.72941 18.7594 7.72941 17.3796V16.6203C7.72941 15.2406 6.81475 14.028 5.48808 13.649L5.12741 13.5459C5.38192 12.6694 5.73104 11.8328 6.16321 11.0479L6.48998 11.2295C7.69611 11.8995 9.2003 11.6889 10.1759 10.7132L10.7128 10.1763C11.6885 9.20071 11.8991 7.69653 11.2291 6.49041L11.0475 6.16352C11.8324 5.73131 12.669 5.38214 13.5456 5.1276L13.6485 5.48785C14.0276 6.81451 15.2402 7.72916 16.6199 7.72916H17.3792C18.759 7.72916 19.9716 6.81451 20.3506 5.48784ZM11.0475 6.16352C11.0041 6.1874 10.9609 6.21154 10.9178 6.23593C10.9383 6.22434 10.961 6.20507 10.9792 6.18031C10.9964 6.15693 11.0044 6.13604 11.0077 6.12239C11.0112 6.10785 11.0103 6.09938 11.0096 6.09597L11.0475 6.16352ZM6.16321 11.0479L6.09551 11.0103C6.09891 11.011 6.10753 11.0117 6.12207 11.0082C6.13572 11.0048 6.15661 10.9969 6.17999 10.9797C6.20475 10.9614 6.22402 10.9387 6.23562 10.9183C6.21123 10.9613 6.18709 11.0045 6.16321 11.0479ZM5.12741 13.5459C5.11353 13.5937 5.09993 13.6416 5.08661 13.6897C5.09294 13.6669 5.09539 13.637 5.09076 13.6064C5.08638 13.5775 5.07716 13.557 5.06981 13.5449C5.06198 13.532 5.05528 13.5267 5.05234 13.5248L5.12741 13.5459ZM5.12741 20.454L5.05242 20.4755L5.05075 20.4761L5.05242 20.4755C5.05536 20.4736 5.06197 20.4679 5.06981 20.455C5.07715 20.4429 5.08637 20.4224 5.09075 20.3935C5.09539 20.363 5.09294 20.3331 5.08661 20.3103C5.09993 20.3583 5.11353 20.4062 5.12741 20.454ZM6.1632 22.952C6.18708 22.9954 6.21122 23.0386 6.23561 23.0817C6.22402 23.0612 6.20475 23.0385 6.17999 23.0203C6.15661 23.0031 6.13572 22.9951 6.12207 22.9918C6.10753 22.9883 6.09905 22.9892 6.09565 22.9899L6.1632 22.952ZM11.0475 27.8364L11.0099 27.9041C11.0087 27.9063 11.0093 27.9065 11.0099 27.9041C11.0106 27.9007 11.0112 27.8921 11.0077 27.8776C11.0044 27.8639 10.9964 27.843 10.9792 27.8197C10.961 27.7949 10.9383 27.7756 10.9178 27.764C10.9609 27.7884 11.0041 27.8126 11.0475 27.8364ZM13.5455 28.8723C13.5933 28.8862 13.6412 28.8998 13.6893 28.9131C13.6664 28.9068 13.6366 28.9044 13.606 28.909C13.5771 28.9134 13.5566 28.9226 13.5445 28.9299C13.5316 28.9378 13.5262 28.9445 13.5243 28.9474C13.523 28.9494 13.5237 28.9497 13.5243 28.9474L13.5455 28.8723ZM20.4535 28.8726L20.4749 28.9476C20.4756 28.95 20.4762 28.9496 20.4749 28.9476C20.473 28.9447 20.4674 28.9381 20.4545 28.9302C20.4424 28.9229 20.4219 28.9137 20.393 28.9093C20.3624 28.9046 20.3326 28.9071 20.3097 28.9134C20.3578 28.9001 20.4057 28.8865 20.4535 28.8726ZM22.952 27.8367C22.9954 27.8129 23.0386 27.7887 23.0817 27.7643C23.0612 27.7759 23.0385 27.7952 23.0203 27.82C23.003 27.8433 22.9951 27.8642 22.9918 27.8779C22.9882 27.8924 22.9891 27.9009 22.9899 27.9043C22.9904 27.9066 22.9911 27.9064 22.9899 27.9043L22.952 27.8367ZM27.8365 22.9526L27.9042 22.9902C27.9063 22.9914 27.9065 22.9907 27.9042 22.9902C27.9008 22.9895 27.8922 22.9888 27.8776 22.9924C27.864 22.9957 27.8431 23.0036 27.8197 23.0209C27.7949 23.0391 27.7757 23.0618 27.7641 23.0823C27.7885 23.0392 27.8126 22.996 27.8365 22.9526ZM28.8726 20.4541C28.8865 20.4063 28.9001 20.3583 28.9134 20.3103C28.9071 20.3331 28.9046 20.363 28.9092 20.3936C28.9136 20.4225 28.9228 20.443 28.9302 20.455C28.938 20.4679 28.9447 20.4733 28.9477 20.4752C28.9497 20.4765 28.95 20.4759 28.9477 20.4752L28.8726 20.4541ZM28.8726 13.5459L28.9476 13.5245C28.9446 13.5264 28.938 13.532 28.9302 13.5449C28.9228 13.557 28.9136 13.5775 28.9092 13.6064C28.9046 13.637 28.9071 13.6668 28.9134 13.6897C28.9001 13.6416 28.8865 13.5937 28.8726 13.5459ZM27.9044 11.0101L27.8367 11.0477C27.8128 11.0044 27.7887 10.9611 27.7643 10.9181C27.7759 10.9385 27.7952 10.9613 27.8199 10.9795C27.8433 10.9967 27.8642 11.0046 27.8778 11.008C27.8924 11.0115 27.901 11.0109 27.9044 11.0101ZM22.9522 6.16334L22.9898 6.09564C22.9891 6.09905 22.9884 6.10767 22.992 6.12221C22.9953 6.13586 23.0032 6.15675 23.0205 6.18013C23.0387 6.20489 23.0614 6.22416 23.0819 6.23575C23.0388 6.21136 22.9956 6.18723 22.9522 6.16334Z" fill="#F1FFE6"/>
</svg>
