<svg width="34" height="34" viewBox="0 0 34 34" fill="none" xmlns="http://www.w3.org/2000/svg">
<path d="M10.25 17C10.25 16.1716 10.9216 15.5 11.75 15.5H15.5V11.75C15.5 10.9216 16.1716 10.25 17 10.25C17.8284 10.25 18.5 10.9216 18.5 11.75V15.5H22.25C23.0784 15.5 23.75 16.1716 23.75 17C23.75 17.8284 23.0784 18.5 22.25 18.5H18.5V22.25C18.5 23.0784 17.8284 23.75 17 23.75C16.1716 23.75 15.5 23.0784 15.5 22.25V18.5H11.75C10.9216 18.5 10.25 17.8284 10.25 17Z" fill="#F1FFE6"/>
<path fill-rule="evenodd" clip-rule="evenodd" d="M17 32C25.2843 32 32 25.2843 32 17C32 8.71573 25.2843 2 17 2C8.71573 2 2 8.71573 2 17C2 25.2843 8.71573 32 17 32ZM17 29C23.6274 29 29 23.6274 29 17C29 10.3726 23.6274 5 17 5C10.3726 5 5 10.3726 5 17C5 23.6274 10.3726 29 17 29Z" fill="#F1FFE6"/>
</svg>
