<svg width="34" height="34" viewBox="0 0 34 34" fill="none" xmlns="http://www.w3.org/2000/svg">
<path fill-rule="evenodd" clip-rule="evenodd" d="M8.5 6C7.67157 6 7 6.67157 7 7.5L7 10.5C7 11.3284 7.67157 12 8.5 12H11.5C12.3284 12 13 11.3284 13 10.5V7.5C13 6.67158 12.3284 6 11.5 6L8.5 6ZM4 7.5C4 5.01472 6.01472 3 8.5 3H11.5C13.9853 3 16 5.01472 16 7.5V10.5C16 12.9853 13.9853 15 11.5 15L8.5 15C6.01472 15 4 12.9853 4 10.5V7.5ZM8.5 21C7.67157 21 7 21.6716 7 22.5L7 25.5C7 26.3284 7.67157 27 8.5 27H11.5C12.3284 27 13 26.3284 13 25.5L13 22.5C13 21.6716 12.3284 21 11.5 21H8.5ZM4 22.5C4 20.0147 6.01472 18 8.5 18H11.5C13.9853 18 16 20.0147 16 22.5L16 25.5C16 27.9853 13.9853 30 11.5 30H8.5C6.01472 30 4 27.9853 4 25.5V22.5ZM22.0001 7.5C22.0001 6.67157 22.6716 6 23.5001 6L26.5001 6C27.3285 6 28.0001 6.67157 28.0001 7.5L28.0001 25.5C28.0001 26.3284 27.3285 27 26.5001 27H23.5001C22.6716 27 22.0001 26.3284 22.0001 25.5L22.0001 7.5ZM23.5001 3C21.0148 3 19.0001 5.01472 19.0001 7.5L19.0001 25.5C19.0001 27.9853 21.0148 30 23.5001 30L26.5001 30C28.9853 30 31.0001 27.9853 31.0001 25.5L31.0001 7.5C31.0001 5.01472 28.9853 3 26.5001 3H23.5001Z" fill="#F1FFE6"/>
</svg>
