<svg width="34" height="34" viewBox="0 0 34 34" fill="none" xmlns="http://www.w3.org/2000/svg">
<path fill-rule="evenodd" clip-rule="evenodd" d="M30.2222 5.48877C30.2222 4.3842 29.3268 3.48877 28.2222 3.48877H5.77778C4.67321 3.48877 3.77778 4.3842 3.77778 5.48877L3.77778 28.4762C3.77778 29.3054 4.72895 29.7744 5.38671 29.2694L12.5857 23.743C15.4471 21.5464 19.6143 21.6007 22.4075 23.871L28.5915 28.8976C29.245 29.4287 30.2222 28.9637 30.2222 28.1216L30.2222 5.48877ZM3.77778 0C1.69137 0 3.8147e-06 1.56198 3.8147e-06 3.48877L0 30.5046C0 33.4605 3.73129 35.077 6.1927 33.1874L15.0006 26.4259C16.4313 25.3276 18.5149 25.3547 19.9115 26.4899L27.7263 32.8419C30.1666 34.8255 34 33.2253 34 30.2231L34 3.48877C34 1.56198 32.3086 0 30.2222 0H3.77778Z" fill="#F1FFE6"/>
</svg>
