<svg width="35" height="34" viewBox="0 0 35 34" fill="none" xmlns="http://www.w3.org/2000/svg">
<path d="M6.60425 2.86102e-06C3.45039 0.00052068 0.884644 2.16052 0.884644 4.81503V29.185C0.884644 31.8397 3.45039 33.9997 6.60445 34H33.603C34.3109 34 34.8846 33.5171 34.8846 32.9212V29.185V25.4487V8.55127V1.07879C34.8846 0.482955 34.3109 2.86102e-06 33.603 2.86102e-06H6.60425ZM6.60445 2.15758H32.3214V8.55127V24.3698H6.60425C5.43806 24.3699 4.35307 24.666 3.44793 25.1722V4.81503C3.44793 3.34995 4.86409 2.15776 6.60445 2.15758ZM32.3214 31.8423H6.60466C4.86409 31.8421 3.44793 30.6499 3.44793 29.1848C3.44793 27.7197 4.86388 26.5275 6.60445 26.5274H32.3214V28.106H12.1411C11.4333 28.106 10.8595 28.589 10.8595 29.1848C10.8595 29.7806 11.4333 30.2636 12.1411 30.2636H32.3214V31.8423Z" fill="#F1FFE6"/>
<path d="M12.8672 15.1376V19.2221C12.8672 19.818 13.441 20.3009 14.1488 20.3009H21.8358C22.5437 20.3009 23.1174 19.818 23.1174 19.2221V15.1378C24.8109 14.5656 25.9846 13.1678 25.9846 11.5702C25.9846 9.51009 24.0495 7.82356 21.6291 7.7307C20.7758 6.78033 19.4464 6.21331 17.9925 6.21331C16.538 6.21331 15.2088 6.78033 14.3557 7.7307C11.9352 7.82356 10 9.51027 10 11.5702C10 13.168 11.174 14.5656 12.8672 15.1376ZM14.5663 9.88431C14.6633 9.88431 14.762 9.89035 14.8602 9.90243C15.411 9.97095 15.9497 9.73224 16.1956 9.31246C16.5362 8.73181 17.225 8.37089 17.9929 8.37089C18.7607 8.37089 19.4495 8.73181 19.7905 9.31281C20.0366 9.73258 20.5777 9.97061 21.1261 9.90243C21.2237 9.89035 21.3221 9.88431 21.4191 9.88431C22.5236 9.88431 23.4222 10.6407 23.4222 11.5703C23.4222 12.417 22.671 13.1357 21.675 13.242C21.0348 13.3104 20.5548 13.769 20.5548 14.3122V18.1433H15.4305V14.3835C15.4305 14.3823 15.4307 14.3809 15.4307 14.3798C15.4731 13.8114 14.9832 13.3131 14.3121 13.2418C13.315 13.136 12.5633 12.4175 12.5633 11.5702C12.5633 10.6405 13.4619 9.88431 14.5663 9.88431Z" fill="#F1FFE6"/>
</svg>
