<svg width="34" height="34" viewBox="0 0 34 34" fill="none" xmlns="http://www.w3.org/2000/svg">
<path d="M14 14C14.8284 14 15.5 14.6716 15.5 15.5V23C15.5 23.8284 14.8284 24.5 14 24.5C13.1716 24.5 12.5 23.8284 12.5 23V15.5C12.5 14.6716 13.1716 14 14 14Z" fill="#F1FFE6"/>
<path d="M21.5 15.5C21.5 14.6716 20.8284 14 20 14C19.1716 14 18.5 14.6716 18.5 15.5V23C18.5 23.8284 19.1716 24.5 20 24.5C20.8284 24.5 21.5 23.8284 21.5 23V15.5Z" fill="#F1FFE6"/>
<path fill-rule="evenodd" clip-rule="evenodd" d="M23.75 8V6.5C23.75 4.01472 21.7353 2 19.25 2H14.75C12.2647 2 10.25 4.01472 10.25 6.5V8L3.5 8C2.67157 8 2 8.67157 2 9.5C2 10.3284 2.67157 11 3.5 11H5.08097L5.85409 24.916C6.07488 28.8904 9.36203 32 13.3425 32H20.6574C24.6379 32 27.925 28.8904 28.1458 24.916L28.9189 11H30.5C31.3284 11 32 10.3284 32 9.5C32 8.67158 31.3284 8 30.5 8L23.75 8ZM20.75 6.5C20.75 5.67157 20.0784 5 19.25 5H14.75C13.9216 5 13.25 5.67157 13.25 6.5V8H20.75V6.5ZM25.9143 11L8.0856 11L8.84947 24.7496C8.98195 27.1342 10.9542 29 13.3425 29H20.6574C23.0457 29 25.018 27.1342 25.1504 24.7496L25.9143 11Z" fill="#F1FFE6"/>
</svg>
