<svg width="34" height="34" viewBox="0 0 34 34" fill="none" xmlns="http://www.w3.org/2000/svg">
<path fill-rule="evenodd" clip-rule="evenodd" d="M14.7778 13.6173C14.7778 12.4241 15.7451 11.4568 16.9383 11.4568C18.1315 11.4568 19.0988 12.4241 19.0988 13.6173C19.0988 14.8105 18.1315 15.7778 16.9383 15.7778C15.7451 15.7778 14.7778 14.8105 14.7778 13.6173ZM16.9383 13.1852C16.6996 13.1852 16.5062 13.3786 16.5062 13.6173C16.5062 13.8559 16.6996 14.0494 16.9383 14.0494C17.1769 14.0494 17.3704 13.8559 17.3704 13.6173C17.3704 13.3786 17.1769 13.1852 16.9383 13.1852Z" fill="#F1FFE6"/>
<path d="M11.321 8C8.93457 8 7 9.93457 7 12.321V18.3705V19.2346C7 21.621 8.93457 23.5556 11.321 23.5556H14.6535C14.7331 23.5556 14.8094 23.5239 14.8656 23.4677L15.994 22.3393C16.183 22.1503 16.0492 21.8272 15.7819 21.8272H11.321C9.88914 21.8272 8.72839 20.6664 8.72839 19.2346V18.8526C8.72839 18.773 8.76 18.6967 8.81626 18.6404L10.0988 17.3579C10.7738 16.6829 11.8682 16.6829 12.5431 17.3579L14.2715 19.0863C14.9198 19.7345 15.7991 20.0987 16.7159 20.0987H18.1103C18.1899 20.0987 18.2662 20.0671 18.3224 20.0109L19.4508 18.8825C19.6398 18.6935 19.506 18.3703 19.2387 18.3703H16.7159C16.2575 18.3703 15.8178 18.1882 15.4937 17.8641L13.7653 16.1357C12.4153 14.7858 10.2266 14.7858 8.87667 16.1357V16.1357C8.82195 16.1904 8.72839 16.1517 8.72839 16.0743V12.321C8.72839 10.8891 9.88914 9.72839 11.321 9.72839H18.2346C19.6664 9.72839 20.8272 10.8891 20.8272 12.321V16.7819C20.8272 17.0492 21.1503 17.183 21.3393 16.994L22.4677 15.8656C22.5239 15.8094 22.5556 15.7331 22.5556 15.6535V12.321C22.5556 9.93457 20.621 8 18.2346 8H11.321Z" fill="#F1FFE6"/>
<path fill-rule="evenodd" clip-rule="evenodd" d="M23.5217 15.9602C24.1693 15.3218 25.2192 15.3218 25.8668 15.9602L26.5143 16.5985C27.1619 17.2368 27.1619 18.2717 26.5143 18.91L20.3472 24.9892C20.1157 25.2173 19.8209 25.3729 19.4999 25.4362L17.8774 25.756C17.1039 25.9085 16.4219 25.2363 16.5766 24.4738L16.9011 22.8745C16.9653 22.5581 17.1231 22.2674 17.3546 22.0393L23.5217 15.9602ZM25.0851 16.7307C24.8692 16.5179 24.5193 16.5179 24.3034 16.7307L18.1363 22.8098C18.0591 22.8858 18.0065 22.9827 17.9851 23.0882L17.6606 24.6875L19.2831 24.3676C19.3901 24.3465 19.4884 24.2947 19.5655 24.2186L25.7327 18.1395C25.9485 17.9267 25.9485 17.5818 25.7327 17.369L25.0851 16.7307Z" fill="#F1FFE6"/>
</svg>
