<svg width="34" height="34" viewBox="0 0 34 34" fill="none" xmlns="http://www.w3.org/2000/svg">
<path fill-rule="evenodd" clip-rule="evenodd" d="M22.0102 3.37497C23.87 1.54168 26.8854 1.54167 28.7453 3.37497L30.6051 5.20827C32.465 7.04157 32.465 10.0139 30.6051 11.8472L12.8927 29.3068C12.2279 29.9622 11.3811 30.4089 10.4591 30.5906L5.79938 31.5093C3.5778 31.9473 1.61911 30.0165 2.06342 27.8267L2.99537 23.2334C3.17977 22.3246 3.63294 21.4899 4.29777 20.8346L22.0102 3.37497ZM26.5002 5.58796C25.8803 4.97686 24.8752 4.97686 24.2552 5.58796L6.5428 23.0476C6.32119 23.266 6.17013 23.5442 6.10867 23.8472L5.17672 28.4404L9.83649 27.5218C10.1438 27.4612 10.4261 27.3123 10.6477 27.0938L28.3601 9.63424C28.98 9.02314 28.98 8.03235 28.3601 7.42126L26.5002 5.58796Z" fill="#F1FFE6"/>
</svg>
