<svg width="34" height="34" viewBox="0 0 34 34" fill="none" xmlns="http://www.w3.org/2000/svg">
<path fill-rule="evenodd" clip-rule="evenodd" d="M34 27.9286C34 31.2817 31.5448 34 28.5161 34C25.4874 34 23.0322 31.2817 23.0322 27.9286V20.5151C22.5405 21.5072 21.8246 22.3944 20.8844 23.0812L10.205 30.8828C5.82974 34.0789 0 30.605 0 24.8016V9.19844C0 3.39503 5.82975 -0.0789362 10.205 3.11725L20.8844 10.9188C21.8246 11.6056 22.5405 12.4928 23.0322 13.4849V6.07143C23.0322 2.71827 25.4874 0 28.5161 0C31.5448 0 34 2.71827 34 6.07143L34 27.9286ZM27.4193 27.9286L27.4193 6.07143C27.4193 5.4008 27.9104 4.85714 28.5161 4.85714C29.1218 4.85714 29.6129 5.4008 29.6129 6.07143L29.6129 27.9286C29.6129 28.5992 29.1218 29.1429 28.5161 29.1429C27.9104 29.1429 27.4193 28.5992 27.4193 27.9286ZM18.4682 14.9729C19.7822 15.9328 19.7822 18.0672 18.4682 19.0271L7.78878 26.8286C6.33037 27.894 4.38713 26.736 4.38713 24.8016L4.38713 9.19845C4.38713 7.26398 6.33037 6.10599 7.78878 7.17138L18.4682 14.9729Z" fill="#F1FFE6"/>
</svg>
