<svg width="34" height="34" viewBox="0 0 34 34" fill="none" xmlns="http://www.w3.org/2000/svg">
<path fill-rule="evenodd" clip-rule="evenodd" d="M5.66667 34C2.53705 34 0 31.5244 0 28.4706V12.5242C0 11.9617 0.263214 11.4301 0.714756 11.0804L13.4776 1.19803C15.5406 -0.399342 18.4594 -0.399344 20.5224 1.19803L33.2852 11.0804C33.7368 11.4301 34 11.9617 34 12.5242V28.4706C34 31.5244 31.4629 34 28.3333 34H5.66667ZM15.8259 4.08562C16.5135 3.55316 17.4865 3.55316 18.1741 4.08562L30.2222 13.4146V28.4706C30.2222 29.4885 29.3765 30.3137 28.3333 30.3137H23.6111V22.0196C23.6111 18.4569 20.6512 15.5687 17 15.5687C13.3488 15.5687 10.3889 18.4569 10.3889 22.0196V30.3137H5.66667C4.62346 30.3137 3.77778 29.4885 3.77778 28.4706V13.4146L15.8259 4.08562ZM14.1667 30.3137H19.8333V22.0196C19.8333 20.4927 18.5648 19.2549 17 19.2549C15.4352 19.2549 14.1667 20.4927 14.1667 22.0196V30.3137Z" fill="#F1FFE6"/>
</svg>
