<svg width="34" height="34" viewBox="0 0 34 34" fill="none" xmlns="http://www.w3.org/2000/svg">
<path fill-rule="evenodd" clip-rule="evenodd" d="M17 12.8333C17 10.5321 18.8655 8.66667 21.1667 8.66667C23.4679 8.66667 25.3333 10.5321 25.3333 12.8333C25.3333 15.1345 23.4679 17 21.1667 17C18.8655 17 17 15.1345 17 12.8333ZM21.1667 12C20.7064 12 20.3333 12.3731 20.3333 12.8333C20.3333 13.2936 20.7064 13.6667 21.1667 13.6667C21.6269 13.6667 22 13.2936 22 12.8333C22 12.3731 21.6269 12 21.1667 12Z" fill="#F1FFE6"/>
<path fill-rule="evenodd" clip-rule="evenodd" d="M2 10.3333C2 5.73096 5.73096 2 10.3333 2H23.6667C28.269 2 32 5.73096 32 10.3333V23.6666C32 28.269 28.269 32 23.6667 32H10.3333C5.73096 32 2 28.269 2 23.6667V22.0002C2 22.0004 2 22.0001 2 22.0002V10.3333ZM5.33333 22.6903V23.6667C5.33333 26.4281 7.57191 28.6667 10.3333 28.6667H23.6667C25.8437 28.6667 27.6958 27.2753 28.3822 25.3333H20.7377C18.9696 25.3333 17.2739 24.6309 16.0237 23.3807L12.6904 20.0473C11.3886 18.7456 9.27806 18.7456 7.97631 20.0473L5.33333 22.6903ZM28.6667 22H20.7377C19.8537 22 19.0058 21.6488 18.3807 21.0236L15.0474 17.6903C12.4439 15.0868 8.22279 15.0868 5.61929 17.6903L5.33333 17.9763V10.3333C5.33333 7.57191 7.57191 5.33333 10.3333 5.33333H23.6667C26.4281 5.33333 28.6667 7.57191 28.6667 10.3333V22Z" fill="#F1FFE6"/>
</svg>
