<svg width="34" height="34" viewBox="0 0 34 34" fill="none" xmlns="http://www.w3.org/2000/svg">
<path fill-rule="evenodd" clip-rule="evenodd" d="M17 2C12.7045 2 9.22222 5.46979 9.22222 9.75C9.22222 14.0302 12.7045 17.5 17 17.5C21.2955 17.5 24.7778 14.0302 24.7778 9.75C24.7778 5.46979 21.2955 2 17 2ZM12.3333 9.75C12.3333 7.18188 14.4227 5.1 17 5.1C19.5773 5.1 21.6667 7.18188 21.6667 9.75C21.6667 12.3181 19.5773 14.4 17 14.4C14.4227 14.4 12.3333 12.3181 12.3333 9.75Z" fill="#F1FFE6"/>
<path fill-rule="evenodd" clip-rule="evenodd" d="M17 19.825C10.0781 19.825 6.23072 22.1583 4.45152 23.7144C3.35347 24.6747 3 26.0244 3 27.1792C3 30.3939 5.61539 33 8.84164 33H25.1584C28.3846 33 31 30.3939 31 27.1792C31 26.0244 30.6465 24.6747 29.5485 23.7144C27.7693 22.1583 23.9219 19.825 17 19.825ZM6.5038 26.0442C7.72786 24.9737 10.8497 22.925 17 22.925C23.1503 22.925 26.2721 24.9737 27.4962 26.0442C27.7109 26.232 27.8889 26.5936 27.8889 27.1792C27.8889 28.6819 26.6664 29.9 25.1584 29.9H8.84164C7.33361 29.9 6.11111 28.6819 6.11111 27.1792C6.11111 26.5936 6.28909 26.232 6.5038 26.0442Z" fill="#F1FFE6"/>
</svg>
