<svg width="34" height="34" viewBox="0 0 34 34" fill="none" xmlns="http://www.w3.org/2000/svg">
<path fill-rule="evenodd" clip-rule="evenodd" d="M6.41667 30.4583C6.04094 30.4583 5.68061 30.3091 5.41493 30.0434C5.14926 29.7777 5 29.4174 5 29.0417C5 25.848 6.26867 22.7852 8.52692 20.5269C10.7163 18.3375 13.662 17.0783 16.7499 17.0035C19.8378 17.0783 22.7834 18.3375 24.9728 20.5269C27.2311 22.7852 28.4998 25.848 28.4998 29.0417C28.4998 29.4174 28.3505 29.7777 28.0848 30.0434C27.8191 30.3091 27.4588 30.4583 27.0831 30.4583H6.41667ZM16.7499 19.838C19.0862 19.9119 21.3114 20.8724 22.9694 22.5304C24.102 23.6631 24.9091 25.0604 25.3305 26.577C25.4937 27.1647 25.0224 27.7083 24.4124 27.7083H9.08731C8.47739 27.7083 8.00601 27.1647 8.16927 26.577C8.59062 25.0604 9.39773 23.6631 10.5304 22.5304C12.1884 20.8724 14.4136 19.9119 16.7499 19.838Z" fill="#F1FFE6"/>
<path d="M16.7917 19.125C15.2506 19.125 13.7442 18.668 12.4629 17.8119C11.1815 16.9557 10.1828 15.7388 9.59311 14.3151C9.00338 12.8913 8.84908 11.3247 9.14972 9.81326C9.45036 8.30182 10.1924 6.91348 11.2821 5.82379C12.3718 4.73411 13.7602 3.99203 15.2716 3.69138C16.783 3.39074 18.3497 3.54504 19.7734 4.13477C21.1972 4.72451 22.414 5.72318 23.2702 7.00452C24.1264 8.28585 24.5833 9.79229 24.5833 11.3333C24.5833 13.3998 23.7624 15.3817 22.3012 16.8429C20.84 18.3041 18.8581 19.125 16.7917 19.125ZM16.7917 6.375C15.811 6.375 14.8524 6.6658 14.037 7.21063C13.2216 7.75546 12.5861 8.52985 12.2108 9.43586C11.8355 10.3419 11.7373 11.3388 11.9286 12.3007C12.1199 13.2625 12.5922 14.146 13.2856 14.8394C13.979 15.5328 14.8625 16.0051 15.8243 16.1964C16.7862 16.3877 17.7831 16.2895 18.6891 15.9142C19.5952 15.539 20.3695 14.9034 20.9144 14.088C21.4592 13.2726 21.75 12.314 21.75 11.3333C21.75 10.6822 21.6218 10.0374 21.3726 9.43586C21.1234 8.83429 20.7582 8.28769 20.2977 7.82726C19.8373 7.36684 19.2907 7.00161 18.6891 6.75243C18.0876 6.50325 17.4428 6.375 16.7917 6.375Z" fill="#F1FFE6"/>
</svg>
