<svg width="34" height="34" viewBox="0 0 34 34" fill="none" xmlns="http://www.w3.org/2000/svg">
<path d="M26.7078 16.5132L25.9389 15.2252L25.2078 15.6617V16.5132H26.7078ZM6.69779 16.5132L8.19779 16.5132L8.19779 15.6956L7.51058 15.2525L6.69779 16.5132ZM11.6342 5.76243L11.0174 7.12978C11.4532 7.32635 11.9567 7.3034 12.3728 7.06797C12.7889 6.83255 13.0679 6.41287 13.1238 5.93806L11.6342 5.76243ZM22.0901 5.76243L20.6809 6.27634C20.8257 6.67354 21.1315 6.99118 21.5229 7.15105C21.9143 7.31093 22.355 7.2982 22.7365 7.116L22.0901 5.76243ZM18.2028 19.8213C18.2028 18.9928 17.5312 18.3213 16.7028 18.3213C15.8744 18.3213 15.2028 18.9928 15.2028 19.8213H18.2028ZM15.2028 22.3022C15.2028 23.1306 15.8744 23.8022 16.7028 23.8022C17.5312 23.8022 18.2028 23.1306 18.2028 22.3022H15.2028ZM19.8205 21.4752C19.8205 22.3037 20.4921 22.9752 21.3205 22.9752C22.1489 22.9752 22.8205 22.3037 22.8205 21.4752H19.8205ZM22.8205 18.1673C22.8205 17.3389 22.1489 16.6673 21.3205 16.6673C20.4921 16.6673 19.8205 17.3389 19.8205 18.1673H22.8205ZM13.5851 18.1673C13.5851 17.3389 12.9135 16.6673 12.0851 16.6673C11.2567 16.6673 10.5851 17.3389 10.5851 18.1673H13.5851ZM10.5851 21.4752C10.5851 22.3037 11.2567 22.9752 12.0851 22.9752C12.9135 22.9752 13.5851 22.3037 13.5851 21.4752H10.5851ZM9.69779 32.8989H23.7078V29.8989H9.69779V32.8989ZM7.51058 15.2525C5.83338 14.1712 5.00049 12.9544 4.67501 11.8663C4.34837 10.7743 4.49606 9.69815 4.9767 8.80241C5.9247 7.03565 8.23553 5.87504 11.0174 7.12978L12.2509 4.39508C8.03288 2.4926 4.02745 4.22649 2.33321 7.38397C1.49272 8.95036 1.23779 10.8437 1.80084 12.726C2.36503 14.6122 3.71413 16.3743 5.885 17.7739L7.51058 15.2525ZM13.1238 5.93806C13.2818 4.59851 14.5388 3.57467 16.3921 3.50355C18.1765 3.43508 19.969 4.32417 20.6809 6.27634L23.4993 5.24853C22.2553 1.83717 19.0944 0.397653 16.277 0.505758C13.5286 0.611218 10.5356 2.26913 10.1445 5.5868L13.1238 5.93806ZM22.7365 7.116C24.1246 6.4531 25.2709 6.49914 26.1412 6.85418C27.0393 7.22052 27.7847 7.97452 28.2243 8.95862C29.0886 10.8934 28.7086 13.5719 25.9389 15.2252L27.4767 17.8012C31.6336 15.3197 32.408 10.9689 30.9634 7.73505C30.2486 6.13483 28.9738 4.76967 27.2744 4.07641C25.5473 3.37185 23.5189 3.41785 21.4437 4.40886L22.7365 7.116ZM8.19779 28.3989L8.19779 26.4371L5.19779 26.4371L5.19779 28.3989L8.19779 28.3989ZM8.19779 26.4371L8.19779 16.5132L5.19779 16.5132L5.19779 26.4371L8.19779 26.4371ZM28.2078 28.3989V26.4371H25.2078V28.3989H28.2078ZM28.2078 26.4371V16.5132H25.2078V26.4371H28.2078ZM6.69779 27.9371H26.7078V24.9371H6.69779V27.9371ZM15.2028 19.8213V22.3022H18.2028V19.8213H15.2028ZM22.8205 21.4752V18.1673H19.8205V21.4752H22.8205ZM10.5851 18.1673V21.4752H13.5851V18.1673H10.5851ZM23.7078 32.8989C26.1931 32.8989 28.2078 30.8842 28.2078 28.3989H25.2078C25.2078 29.2273 24.5362 29.8989 23.7078 29.8989V32.8989ZM9.69779 29.8989C8.86936 29.8989 8.19779 29.2273 8.19779 28.3989L5.19779 28.3989C5.19779 30.8842 7.21251 32.8989 9.69779 32.8989V29.8989Z" fill="#F1FFE6"/>
</svg>
