<svg width="34" height="34" viewBox="0 0 34 34" fill="none" xmlns="http://www.w3.org/2000/svg">
<path d="M6.37504 29.75C5.99932 29.75 5.63898 29.6007 5.37331 29.3351C5.10763 29.0694 4.95837 28.7091 4.95837 28.3333C4.95837 25.1397 6.22705 22.0768 8.4853 19.8186C10.7435 17.5603 13.8064 16.2917 17 16.2917C17.3757 16.2917 17.736 16.441 18.0016 16.7067C18.2673 16.9723 18.4165 17.3326 18.4165 17.7083C18.4165 18.084 18.2673 18.4443 18.0016 18.71C17.736 18.9757 17.3757 19.1249 17 19.125C14.5578 19.125 12.2157 20.0952 10.4888 21.8221C8.76187 23.549 7.79171 25.8911 7.79171 28.3333C7.79171 28.7091 7.64245 29.0694 7.37678 29.3351C7.1111 29.6007 6.75076 29.75 6.37504 29.75Z" fill="#F1FFE6"/>
<path d="M17 19.125C15.459 19.125 13.9526 18.668 12.6712 17.8119C11.3899 16.9557 10.3912 15.7388 9.80148 14.3151C9.21175 12.8913 9.05745 11.3247 9.35809 9.81326C9.65874 8.30182 10.4008 6.91348 11.4905 5.82379C12.5802 4.73411 13.9685 3.99203 15.48 3.69138C16.9914 3.39074 18.558 3.54504 19.9818 4.13477C21.4055 4.72451 22.6224 5.72318 23.4786 7.00452C24.3347 8.28585 24.7917 9.79229 24.7917 11.3333C24.7917 13.3998 23.9708 15.3817 22.5096 16.8429C21.0484 18.3041 19.0665 19.125 17 19.125ZM17 6.375C16.0194 6.375 15.0607 6.6658 14.2453 7.21063C13.4299 7.75546 12.7944 8.52985 12.4191 9.43586C12.0439 10.3419 11.9457 11.3388 12.137 12.3007C12.3283 13.2625 12.8005 14.146 13.494 14.8394C14.1874 15.5328 15.0709 16.0051 16.0327 16.1964C16.9945 16.3877 17.9915 16.2895 18.8975 15.9142C19.8035 15.539 20.5779 14.9034 21.1227 14.088C21.6676 13.2726 21.9584 12.314 21.9584 11.3333C21.9584 10.6822 21.8301 10.0374 21.5809 9.43586C21.3318 8.83429 20.9665 8.28769 20.5061 7.82726C20.0457 7.36684 19.4991 7.00161 18.8975 6.75243C18.2959 6.50325 17.6512 6.375 17 6.375ZM27.625 23.0208H19.8334C19.5516 23.0208 19.2813 22.9089 19.0821 22.7096C18.8828 22.5104 18.7709 22.2401 18.7709 21.9583C18.7709 21.6765 18.8828 21.4063 19.0821 21.207C19.2813 21.0078 19.5516 20.8958 19.8334 20.8958H25.0609L24.7492 20.5842C24.5615 20.3828 24.4594 20.1164 24.4642 19.8411C24.4691 19.5658 24.5806 19.3032 24.7752 19.1085C24.9699 18.9139 25.2325 18.8024 25.5078 18.7975C25.7831 18.7926 26.0495 18.8948 26.2509 19.0825L28.3759 21.2075C28.5243 21.3561 28.6253 21.5453 28.6662 21.7513C28.7072 21.9573 28.6861 22.1708 28.6058 22.3648C28.5254 22.5588 28.3894 22.7247 28.2148 22.8415C28.0403 22.9582 27.8351 23.0207 27.625 23.0208ZM21.9584 28.6875C21.6767 28.6873 21.4066 28.5752 21.2075 28.3758L19.0825 26.2508C18.9341 26.1022 18.8331 25.913 18.7922 25.707C18.7513 25.501 18.7723 25.2876 18.8526 25.0935C18.933 24.8995 19.069 24.7336 19.2436 24.6169C19.4181 24.5001 19.6234 24.4377 19.8334 24.4375H27.625C27.9068 24.4375 28.1771 24.5494 28.3763 24.7487C28.5756 24.948 28.6875 25.2182 28.6875 25.5C28.6875 25.7818 28.5756 26.052 28.3763 26.2513C28.1771 26.4506 27.9068 26.5625 27.625 26.5625H22.3975L22.7092 26.8742C22.8576 27.0228 22.9587 27.212 22.9996 27.418C23.0405 27.624 23.0195 27.8374 22.9391 28.0315C22.8588 28.2255 22.7227 28.3914 22.5482 28.5081C22.3736 28.6249 22.1684 28.6873 21.9584 28.6875Z" fill="#F1FFE6"/>
</svg>
