<svg width="73" height="73" viewBox="0 0 73 73" fill="none" xmlns="http://www.w3.org/2000/svg">
<path d="M22.5347 57V33.8502C15.9998 35.0529 13.5922 25.7758 18.9233 22.1679C17.8915 16.4987 22.5347 13.4063 28.8977 14.6089C32.1651 9.97039 39.56 9.62677 44.8911 14.6089C58.6488 14.6089 59.1647 26.8065 50.7381 32.304V33.8502V49.4819C50.7381 50.5266 49.8912 51.3736 48.8464 51.3736C46.7266 53.5206 47.0412 54.7242 48.8464 56.8711C49.8912 56.8711 50.7381 57.718 50.7381 58.7628V59.4355C50.7381 60.8519 49.59 62 48.1737 62H27.5347C24.7733 62 22.5347 59.7614 22.5347 57Z" fill="#F1FFE6"/>
<path d="M22.5347 33.8502V57C22.5347 59.7614 24.7733 62 27.5347 62H48.1737C49.59 62 50.7381 60.8519 50.7381 59.4355V58.7628C50.7381 57.718 49.8912 56.8711 48.8464 56.8711V56.8711M22.5347 33.8502C15.9998 35.0529 13.5922 25.7758 18.9233 22.1679M22.5347 33.8502C23.7959 31.1015 29.6544 25.9476 42.9994 27.322M44.8911 14.6089C58.6488 14.6089 59.1647 26.8065 50.7381 32.304V33.8502V49.4819C50.7381 50.5266 49.8912 51.3736 48.8464 51.3736V51.3736M44.8911 14.6089C39.56 9.62677 32.1651 9.97039 28.8977 14.6089M44.8911 14.6089C46.3606 15.9821 46.542 18.4573 44.8911 20.1065M28.8977 14.6089C22.5347 13.4063 17.8915 16.4987 18.9233 22.1679M28.8977 14.6089C30.4456 14.9014 31.3055 16.1539 31.8212 17.3577M18.9233 22.1679C19.9554 21.6515 21.5031 20.9643 24.0825 21.309M48.8464 56.8711C47.0412 54.7242 46.7266 53.5206 48.8464 51.3736M48.8464 56.8711H29.9268C28.4087 56.8711 27.1781 55.6404 27.1781 54.1223V54.1223C27.1781 52.6042 28.4087 51.3736 29.9268 51.3736H48.8464" stroke="url(#paint0_linear_131_4)" stroke-width="3" stroke-linecap="round"/>
<defs>
<linearGradient id="paint0_linear_131_4" x1="22.1088" y1="11" x2="50.5676" y2="60.7183" gradientUnits="userSpaceOnUse">
<stop stop-color="#1EAE81"/>
<stop offset="0.69" stop-color="#183975"/>
<stop offset="0.99" stop-color="#AD3C3E"/>
</linearGradient>
</defs>
</svg>
